:SAMPLES-PER-SECOND 24
:FULLY-SPECIFIED
:DEGREES
329
root  3.2727 40.0932 3.831 73.3919 -22.677 -41.9277
RightUpLeg  -9.84451 -2.68018 -33.5327
RightLeg  85.0874 0.251499 -0.933851
RightFoot  -9.27475 -0.0681444 0.0907722
RightToes  -1.74623e-010 0 -2.59999e-017
Spine  12.9769 6.05707 -4.5103
Spine1  9.10997 -1.13665 23.1577
HEad  -30.5411 -37.2911 37.009
LeftShoulder1  2.51328 -3.94991 -27.6387
LeftArm  1.64655 21.7696 -36.646
LeftForeArm  24.7495 -67.7021 -25.9906
LeftHand  -0.815942 2.67708 34.3735
RightShoulder  4.05603 6.26166 35.6276
RightArm  -2.57004 -23.471 19.6702
RightForeArm  131.079 75.838 134.29
RightHand  -1.09522 3.26764 -14.8578
LeftUpLeg  -52.8805 20.4085 21.6259
LeftLeg  9.51847 36.4098 6.21472
LeftFoot  -6.45397 -0.387751 9.97115
LeftToes  -6.27559e-011 -2.10356e-011 8.24929e-012
330
root  3.37462 40.1913 3.90697 75.1775 -24.2694 -44.5017
RightUpLeg  -29.9515 0.180487 -24.596
RightLeg  105.907 -0.841504 3.43441
RightFoot  -6.43287 -0.15932 2.63612
RightToes  -1.74623e-010 0 -2.59999e-017
Spine  8.06761 5.57413 -1.53973
Spine1  11.8252 -1.33272 20.823
HEad  -21.5767 -33.0175 27.0962
LeftShoulder1  2.49541 -3.84177 -27.8979
LeftArm  3.23811 19.1165 -36.2257
LeftForeArm  24.5478 -67.6102 -25.9317
LeftHand  -0.903768 2.42919 34.8142
RightShoulder  4.23988 6.41357 36.8171
RightArm  -5.33381 -25.0224 17.6697
RightForeArm  129.697 76.1161 133.077
RightHand  -1.00458 3.00111 -14.0742
LeftUpLeg  -51.2481 21.2162 22.7816
LeftLeg  8.79356 38.3311 6.1942
LeftFoot  -6.5246 -0.401597 10.4533
LeftToes  -6.27559e-011 -2.10356e-011 8.24929e-012
331
root  3.34074 40.1362 3.94333 70.6278 -27.7925 -42.204
RightUpLeg  -45.333 2.62745 -15.5509
RightLeg  117.845 -3.95033 7.57404
RightFoot  -4.38325 -0.228595 3.26758
RightToes  -1.74623e-010 0 -2.59999e-017
Spine  7.87714 4.08131 -2.49997
Spine1  11.6791 -2.51353 19.9836
HEad  -13.031 -25.2243 15.3423
LeftShoulder1  2.4621 -3.7885 -27.683
LeftArm  4.07179 14.3753 -35.7215
LeftForeArm  23.0402 -66.8256 -24.9717
LeftHand  -0.954246 2.31451 35.3594
RightShoulder  4.30151 6.48033 37.1399
RightArm  -7.7316 -27.4173 17.636
RightForeArm  137.683 74.1401 140.606
RightHand  -0.853067 2.2019 -13.2006
LeftUpLeg  -47.7423 17.5484 20.6708
LeftLeg  10.5081 39.9927 7.69688
LeftFoot  -7.95781 -0.264347 10.5444
LeftToes  -6.27559e-011 -2.10356e-011 8.24929e-012
332
root  3.09613 39.9506 4.5252 59.9045 -29.5274 -34.7079
RightUpLeg  -53.8997 5.21504 -5.89411
RightLeg  115.477 -4.58966 9.54355
RightFoot  -5.71153 -0.24228 4.18238
RightToes  -1.74623e-010 0 -2.59999e-017
Spine  9.94278 1.56038 -2.38471
Spine1  10.5002 -4.2558 19.6665
HEad  -8.04841 -15.6984 5.26543
LeftShoulder1  2.50463 -3.83704 -28.0489
LeftArm  4.6595 6.71563 -36.4506
LeftForeArm  18.7889 -64.0501 -21.9894
LeftHand  -1.07678 1.99289 36.0348
RightShoulder  4.34318 6.52915 37.3386
RightArm  -9.18334 -30.4767 18.8928
RightForeArm  147.838 70.1066 150.204
RightHand  -0.720909 0.798116 -13.6229
LeftUpLeg  -42.3802 11.555 15.5811
LeftLeg  13.0407 38.3164 8.96326
LeftFoot  -10.6169 0.000164758 10.047
LeftToes  -6.27559e-011 -2.10356e-011 8.24929e-012
333
root  2.65777 39.6727 5.38822 46.1998 -27.534 -24.0815
RightUpLeg  -56.9844 5.96705 -0.723741
RightLeg  102.17 -1.93612 9.02877
RightFoot  -9.82651 -0.138395 5.52154
RightToes  -1.74623e-010 0 -2.59999e-017
Spine  11.7136 -1.5723 -1.18499
Spine1  10.6339 -6.72837 18.5158
HEad  -5.70517 -6.50319 -2.26572
LeftShoulder1  2.60166 -3.94277 -28.8886
LeftArm  7.22139 -1.95737 -39.0341
LeftForeArm  13.7126 -60.3478 -18.9105
LeftHand  -1.39577 1.17094 37.4675
RightShoulder  4.41451 6.58692 37.7833
RightArm  -8.47358 -31.9959 20.2676
RightForeArm  153.54 66.3668 155.775
RightHand  -0.726631 0.147471 -15.244
LeftUpLeg  -34.8734 4.67819 9.078
LeftLeg  13.9166 34.7907 8.98151
LeftFoot  -13.2862 0.237651 9.28305
LeftToes  -6.27559e-011 -2.10356e-011 8.24929e-012
334
root  2.10351 39.3859 6.42451 33.5404 -22.4128 -14.2696
RightUpLeg  -56.5167 5.13477 -1.62463
RightLeg  80.4016 0.831564 4.0533
RightFoot  -12.1019 -0.0365415 6.88734
RightToes  -1.74623e-010 0 -2.59999e-017
Spine  11.7485 -4.0697 -0.0292314
Spine1  12.2756 -8.85409 16.8028
HEad  -4.54842 1.84786 -8.24563
LeftShoulder1  2.66232 -4.0521 -29.1938
LeftArm  13.5216 -8.75133 -43.3569
LeftForeArm  11.3931 -57.3327 -16.779
LeftHand  -1.61376 0.503182 37.4081
RightShoulder  4.37144 6.56309 37.4692
RightArm  -6.39393 -32.2465 21.8882
RightForeArm  156.777 64.2068 158.266
RightHand  -0.792833 0.454251 -15.795
LeftUpLeg  -25.1159 -0.156359 2.86949
LeftLeg  12.3064 29.7446 6.52963
LeftFoot  -15.3442 0.378096 8.1805
LeftToes  -6.27559e-011 -2.10356e-011 8.24929e-012
335
root  1.51972 39.2514 7.62555 23.9218 -15.7244 -8.05004
RightUpLeg  -51.7678 6.79571 -6.75939
RightLeg  51.5837 -1.56154 -2.48094
RightFoot  -11.3413 -0.0770622 6.22693
RightToes  -1.74623e-010 0 -2.59999e-017
Spine  10.5901 -5.0285 2.60722
Spine1  14.3283 -9.56696 14.6446
HEad  -3.7366 8.98226 -12.5375
LeftShoulder1  2.68651 -4.12825 -29.1589
LeftArm  21.6569 -11.3673 -47.8498
LeftForeArm  12.3242 -56.5328 -16.1331
LeftHand  -1.54968 0.472257 35.7894
RightShoulder  4.32256 6.53418 37.1186
RightArm  -4.45331 -32.6037 22.8055
RightForeArm  158.931 62.9943 159.541
RightHand  -0.772957 0.407668 -15.5218
LeftUpLeg  -14.2577 -2.50654 -1.00774
LeftLeg  8.84436 23.8794 3.53554
LeftFoot  -16.0759 0.398756 7.29481
LeftToes  -6.27559e-011 -2.10356e-011 8.24929e-012
336
root  0.895115 39.0119 8.91343 16.1659 -7.00562 -3.58686
RightUpLeg  -43.5263 8.47941 -13.7341
RightLeg  22.6609 -4.15167 -3.58427
RightFoot  -10.5199 -0.110066 5.40773
RightToes  -1.74623e-010 0 -2.59999e-017
Spine  8.97479 -5.22459 4.62564
Spine1  16.4936 -10.1015 13.654
HEad  -2.84223 14.5051 -15.3021
LeftShoulder1  2.72491 -4.18386 -29.409
LeftArm  29.0722 -10.3246 -50.845
LeftForeArm  12.023 -57.4941 -16.8298
LeftHand  -1.47422 0.469557 34.1337
RightShoulder  4.32944 6.53462 37.1833
RightArm  -3.4779 -33.425 22.9138
RightForeArm  159.042 62.2505 160.156
RightHand  -0.761423 0.0319666 -16.3116
LeftUpLeg  -4.42978 -4.52907 -3.78486
LeftLeg  7.28966 17.7174 3.02348
LeftFoot  -17.232 0.439075 6.53871
LeftToes  -6.27559e-011 -2.10356e-011 8.24929e-012
337
root  -0.00175486 38.4195 10.272 9.76932 4.91251 0.796877
RightUpLeg  -35.0095 -2.42371 -14.2728
RightLeg  5.86958 9.70644 -2.70954
RightFoot  -12.1931 -0.0148126 8.45065
RightToes  -1.74623e-010 0 -2.59999e-017
Spine  7.17456 -5.47543 2.62796
Spine1  18.1206 -11.1724 14.7794
HEad  -2.20255 19.8348 -17.1223
LeftShoulder1  2.74239 -4.2376 -29.3889
LeftArm  34.5211 -7.95031 -52.2933
LeftForeArm  10.1296 -58.3541 -17.6479
LeftHand  -1.40505 0.343809 31.827
RightShoulder  4.33044 6.5282 37.2199
RightArm  -3.51223 -34.3454 23.6553
RightForeArm  157.95 62.3032 160.008
RightHand  -0.781618 -0.122257 -17.2204
LeftUpLeg  2.64582 -6.43102 -5.10375
LeftLeg  10.8402 8.8165 2.95847
LeftFoot  -20.5855 0.50533 4.72873
LeftToes  -6.27559e-011 -2.10356e-011 8.24929e-012
338
root  -1.15028 37.7458 11.7569 5.23725 18.1157 3.35147
RightUpLeg  -29.2167 -9.15915 -18.4633
RightLeg  7.22933 13.7664 -0.768184
RightFoot  -14.12 0.167841 10.8414
RightToes  -1.74623e-010 0 -2.59999e-017
Spine  5.71651 -5.54551 0.30043
Spine1  19.1143 -11.5467 15.2176
HEad  -3.27232 27.5656 -18.5425
LeftShoulder1  2.73143 -4.30888 -28.9164
LeftArm  36.8064 -5.9231 -52.0694
LeftForeArm  10.285 -58.4992 -17.7437
LeftHand  -1.22165 0.552348 28.9702
RightShoulder  4.36784 6.55168 37.4824
RightArm  -3.34034 -33.9495 25.0728
RightForeArm  157.217 63.5386 158.902
RightHand  -0.698893 -0.580059 -16.8341
LeftUpLeg  6.76569 -10.9219 -3.28289
LeftLeg  16.7127 1.70441 1.01463
LeftFoot  -24.3632 0.413312 2.34106
LeftToes  -6.27559e-011 -2.10356e-011 8.24929e-012
339
root  -2.42186 37.0058 13.5078 2.14412 29.7225 3.97441
RightUpLeg  -24.7917 -5.02801 -24.0529
RightLeg  17.1391 5.67638 1.54986
RightFoot  -14.454 0.224029 11.8296
RightToes  -1.74623e-010 0 -2.59999e-017
Spine  4.65207 -4.89907 0.440353
Spine1  19.222 -9.87653 12.5203
HEad  -6.7776 37.9331 -21.6934
LeftShoulder1  2.74673 -4.34952 -28.9307
LeftArm  36.7041 -5.1247 -50.0337
LeftForeArm  11.0372 -57.7803 -17.1311
LeftHand  -1.09335 0.857064 27.7351
RightShoulder  4.38103 6.55831 37.5816
RightArm  -2.20515 -32.3464 26.3284
RightForeArm  156.741 64.9787 157.538
RightHand  -0.546483 -1.37186 -15.6875
LeftUpLeg  7.79066 -16.0387 -0.11994
LeftLeg  24.0706 0.154855 0.412815
LeftFoot  -27.8903 0.121334 -0.31953
LeftToes  -6.27559e-011 -2.10356e-011 8.24929e-012
340
root  -3.67529 36.4068 15.2596 0.472676 38.4269 3.53702
RightUpLeg  -24.6803 -5.6383 -23.4768
RightLeg  28.7356 5.93902 3.31505
RightFoot  -12.4308 0.0353314 12.4921
RightToes  -1.74623e-010 0 -2.59999e-017
Spine  4.85379 -3.21817 3.60623
Spine1  17.8198 -6.05894 7.37765
HEad  -12.4839 49.0469 -28.1361
LeftShoulder1  2.754 -4.21286 -29.6585
LeftArm  35.3791 -5.655 -47.1676
LeftForeArm  10.7516 -55.5547 -15.644
LeftHand  -1.06368 1.08973 28.4172
RightShoulder  4.30793 6.5148 37.0577
RightArm  -0.490061 -30.6547 27.3047
RightForeArm  156.202 65.6611 156.805
RightHand  -0.462765 -1.73793 -14.573
LeftUpLeg  5.39078 -17.4397 4.69704
LeftLeg  31.6162 1.18867 1.13514
LeftFoot  -27.9239 -0.480337 -4.5103
LeftToes  -6.27559e-011 -2.10356e-011 8.24929e-012
341
root  -4.90086 35.8952 16.9235 0.308455 46.5963 3.41437
RightUpLeg  -26.0225 -8.71469 -21.7071
RightLeg  38.8316 4.89539 3.90025
RightFoot  -9.54347 -0.258235 12.2936
RightToes  -1.74623e-010 0 -2.59999e-017
Spine  5.48355 -1.66399 6.68319
Spine1  16.4023 -2.29125 1.49513
HEad  -21.3729 58.5553 -37.5999
LeftShoulder1  2.68354 -3.9877 -29.7882
LeftArm  32.371 -7.03748 -45.4985
LeftForeArm  10.6011 -52.8325 -14.0445
LeftHand  -0.871613 2.00763 29.5984
RightShoulder  4.14974 6.4456 35.7976
RightArm  1.02909 -28.3162 28.1166
RightForeArm  155.163 66.2287 156.096
RightHand  -0.455228 -1.69743 -14.1723
LeftUpLeg  -0.436674 -14.7419 10.705
LeftLeg  38.7966 1.48464 1.66633
LeftFoot  -24.5387 -1.03847 -10.327
LeftToes  -6.27559e-011 -2.10356e-011 8.24929e-012
